<?xml version="1.0" encoding="UTF-8" standalone="no"?>
<svg width="79px" height="82px" viewBox="0 0 79 82" version="1.1" xmlns="http://www.w3.org/2000/svg" xmlns:xlink="http://www.w3.org/1999/xlink" xmlns:sketch="http://www.bohemiancoding.com/sketch/ns">
    <!-- Generator: Sketch 3.4.4 (17249) - http://www.bohemiancoding.com/sketch -->
    <title>Group</title>
    <desc>Created with Sketch.</desc>
    <defs></defs>
    <g id="Page-1" stroke="none" stroke-width="1" fill="none" fill-rule="evenodd" sketch:type="MSPage">
        <g id="pencil" sketch:type="MSLayerGroup">
            <g id="Group" sketch:type="MSShapeGroup">
                <circle id="Oval" fill="#F6A623" cx="3.287" cy="78.735" r="3.218"></circle>
                <path d="M74.259,6.948 L72.53,5.223 C69.75,2.44 66.084,1.05 62.417,1.05 C58.75,1.05 55.084,2.44 52.301,5.223 L45.584,11.939 L42.238,8.593 L46.513,4.32 C47.491,3.343 47.491,1.757 46.513,0.78 C45.534,-0.198 43.95,-0.198 42.973,0.78 L27.143,16.611 C26.165,17.588 26.165,19.173 27.143,20.151 C27.632,20.64 28.272,20.884 28.913,20.884 C29.553,20.884 30.194,20.639 30.683,20.151 L38.699,12.132 L42.045,15.478 L11.215,46.306 C10.992,46.478 10.787,46.669 10.621,46.902 L10.621,46.902 C10.406,47.201 10.245,47.548 10.157,47.928 L5.435,68.471 C5.406,68.6 5.411,68.725 5.4,68.853 C5.066,69.403 4.863,70.04 4.863,70.73 C4.863,72.738 6.49,74.366 8.499,74.366 C9.125,74.366 9.705,74.193 10.22,73.915 C10.331,73.91 10.445,73.894 10.557,73.878 C10.612,73.871 10.668,73.871 10.724,73.861 C10.742,73.856 10.76,73.859 10.779,73.854 L31.517,69.329 C31.912,69.244 32.267,69.078 32.575,68.855 L32.577,68.858 L32.604,68.831 C32.818,68.673 33.001,68.482 33.162,68.273 L74.257,27.177 C79.822,21.614 79.821,12.512 74.259,6.948 L74.259,6.948 Z M11.449,67.852 L14.731,53.576 L25.863,64.708 L11.449,67.852 L11.449,67.852 Z M31.296,63.061 L16.419,48.183 L45.584,19.02 L60.461,33.895 L31.296,63.061 L31.296,63.061 Z M70.719,23.638 L64.001,30.355 L49.124,15.48 L55.84,8.762 C57.586,7.017 59.922,6.056 62.418,6.056 C64.912,6.056 67.246,7.015 68.992,8.763 L70.719,10.487 C72.464,12.233 73.425,14.568 73.425,17.064 C73.425,19.558 72.464,21.893 70.719,23.638 L70.719,23.638 Z" id="Shape" fill="#FFFFFF"></path>
            </g>
        </g>
    </g>
</svg>